<?xml version="1.0" encoding="UTF-8"?>
<!DOCTYPE svg PUBLIC "-//W3C//DTD SVG 1.1//EN" "http://www.w3.org/Graphics/SVG/1.1/DTD/svg11.dtd">
<svg xmlns="http://www.w3.org/2000/svg" version="1.1" width="512px" height="512px" style="shape-rendering:geometricPrecision; text-rendering:geometricPrecision; image-rendering:optimizeQuality; fill-rule:evenodd; clip-rule:evenodd" xmlns:xlink="http://www.w3.org/1999/xlink">
<g><path style="opacity:0.985" fill="#00c7ff" d="M 511.5,39.5 C 511.5,137.833 511.5,236.167 511.5,334.5C 509.261,339.234 505.594,342.401 500.5,344C 462.167,344.333 423.833,344.667 385.5,345C 386.207,402.599 360.874,444.266 309.5,470C 252.691,491.839 202.524,481.672 159,439.5C 135.355,412.412 123.855,380.745 124.5,344.5C 86.4985,344.667 48.4985,344.5 10.5,344C 5.40601,342.401 1.73934,339.234 -0.5,334.5C -0.5,236.167 -0.5,137.833 -0.5,39.5C 1.73934,34.7658 5.40601,31.5992 10.5,30C 75.1667,29.3333 139.833,29.3333 204.5,30C 225.287,32.3895 242.287,41.5562 255.5,57.5C 268.713,41.5562 285.713,32.3895 306.5,30C 371.167,29.3333 435.833,29.3333 500.5,30C 505.594,31.5992 509.261,34.7658 511.5,39.5 Z M 29.5,60.5 C 87.1676,60.3333 144.834,60.5 202.5,61C 221.366,64.8664 233.533,76.0331 239,94.5C 240.449,136.809 240.949,179.142 240.5,221.5C 213.073,224.358 189.073,234.858 168.5,253C 122.168,253.5 75.8345,253.667 29.5,253.5C 29.5,189.167 29.5,124.833 29.5,60.5 Z M 308.5,60.5 C 366.167,60.5 423.833,60.5 481.5,60.5C 481.5,124.833 481.5,189.167 481.5,253.5C 435.165,253.667 388.832,253.5 342.5,253C 322.035,234.605 298.035,224.105 270.5,221.5C 270.051,179.142 270.551,136.809 272,94.5C 277.642,76.0203 289.809,64.687 308.5,60.5 Z M 242.5,251.5 C 291.867,248.42 327.034,269.087 348,313.5C 363.108,358.163 353.275,396.33 318.5,428C 280.522,455.567 241.189,457.567 200.5,434C 159.647,402.777 147.147,362.611 163,313.5C 178.635,278.78 205.135,258.114 242.5,251.5 Z M 29.5,284.5 C 67.1681,284.333 104.835,284.5 142.5,285C 136.973,293.884 132.973,303.384 130.5,313.5C 96.8333,313.5 63.1667,313.5 29.5,313.5C 29.5,303.833 29.5,294.167 29.5,284.5 Z M 368.5,285.5 C 405.996,284.502 443.663,284.168 481.5,284.5C 481.5,294.167 481.5,303.833 481.5,313.5C 447.833,313.5 414.167,313.5 380.5,313.5C 378.119,303.413 374.119,294.079 368.5,285.5 Z M 235.5,325.5 C 250.058,333.379 264.391,341.712 278.5,350.5C 264.866,359.322 250.866,367.656 236.5,375.5C 235.501,358.847 235.167,342.18 235.5,325.5 Z"/></g>
<g><path style="opacity:0.99" fill="#00c7ff" d="M 128.5,90.5 C 138.265,88.1335 145.099,91.4669 149,100.5C 149.667,138.833 149.667,177.167 149,215.5C 146.092,221.571 141.258,224.571 134.5,224.5C 125.548,224.717 120.381,220.384 119,211.5C 118.333,175.5 118.333,139.5 119,103.5C 119.758,97.2862 122.924,92.9529 128.5,90.5 Z"/></g>
<g><path style="opacity:0.99" fill="#00c7ff" d="M 369.5,90.5 C 379.265,88.1335 386.099,91.4669 390,100.5C 390.667,138.833 390.667,177.167 390,215.5C 387.092,221.571 382.258,224.571 375.5,224.5C 366.548,224.717 361.381,220.384 360,211.5C 359.333,175.5 359.333,139.5 360,103.5C 360.758,97.2862 363.924,92.9529 369.5,90.5 Z"/></g>
<g><path style="opacity:0.987" fill="#00c7ff" d="M 68.5,112.5 C 77.7458,110.21 84.5791,113.21 89,121.5C 89.6667,145.5 89.6667,169.5 89,193.5C 84.6524,201.915 77.8191,204.748 68.5,202C 62.8079,199.794 59.6413,195.627 59,189.5C 58.3333,168.167 58.3333,146.833 59,125.5C 59.7578,119.286 62.9245,114.953 68.5,112.5 Z"/></g>
<g><path style="opacity:0.987" fill="#00c7ff" d="M 188.5,112.5 C 197.746,110.21 204.579,113.21 209,121.5C 209.667,145.5 209.667,169.5 209,193.5C 204.652,201.915 197.819,204.748 188.5,202C 182.808,199.794 179.641,195.627 179,189.5C 178.333,168.167 178.333,146.833 179,125.5C 179.758,119.286 182.924,114.953 188.5,112.5 Z"/></g>
<g><path style="opacity:0.987" fill="#00c7ff" d="M 309.5,112.5 C 318.746,110.21 325.579,113.21 330,121.5C 330.667,145.5 330.667,169.5 330,193.5C 325.652,201.915 318.819,204.748 309.5,202C 303.808,199.794 300.641,195.627 300,189.5C 299.333,168.167 299.333,146.833 300,125.5C 300.758,119.286 303.924,114.953 309.5,112.5 Z"/></g>
<g><path style="opacity:0.987" fill="#00c7ff" d="M 429.5,112.5 C 438.746,110.21 445.579,113.21 450,121.5C 450.667,145.5 450.667,169.5 450,193.5C 445.652,201.915 438.819,204.748 429.5,202C 423.808,199.794 420.641,195.627 420,189.5C 419.333,168.167 419.333,146.833 420,125.5C 420.758,119.286 423.924,114.953 429.5,112.5 Z"/></g>
<g><path style="opacity:0.975" fill="#00c7ff" d="M 217.5,282.5 C 222.912,282.603 227.912,284.103 232.5,287C 260.67,303.586 289.003,319.919 317.5,336C 326.564,341.866 328.731,349.7 324,359.5C 322.127,361.709 319.96,363.542 317.5,365C 289.67,380.747 262.003,396.747 234.5,413C 230.148,415.677 225.482,417.511 220.5,418.5C 211.245,417.745 206.078,412.745 205,403.5C 204.333,368.167 204.333,332.833 205,297.5C 205.778,289.564 209.945,284.564 217.5,282.5 Z M 235.5,325.5 C 235.167,342.18 235.501,358.847 236.5,375.5C 250.866,367.656 264.866,359.322 278.5,350.5C 264.391,341.712 250.058,333.379 235.5,325.5 Z"/></g>
</svg>
