<?xml version="1.0" encoding="UTF-8"?>
<!DOCTYPE svg PUBLIC "-//W3C//DTD SVG 1.1//EN" "http://www.w3.org/Graphics/SVG/1.1/DTD/svg11.dtd">
<svg xmlns="http://www.w3.org/2000/svg" version="1.1" width="512px" height="512px" style="shape-rendering:geometricPrecision; text-rendering:geometricPrecision; image-rendering:optimizeQuality; fill-rule:evenodd; clip-rule:evenodd" xmlns:xlink="http://www.w3.org/1999/xlink">
<g><path style="opacity:0.985" fill="#00c7ff" d="M 118.5,-0.5 C 218.5,-0.5 318.5,-0.5 418.5,-0.5C 423.64,1.81949 426.806,5.81949 428,11.5C 428.5,22.495 428.667,33.495 428.5,44.5C 452.836,44.3334 477.169,44.5 501.5,45C 506.02,47.0223 509.353,50.189 511.5,54.5C 511.5,183.5 511.5,312.5 511.5,441.5C 509.353,445.811 506.02,448.978 501.5,451C 457.168,451.5 412.835,451.667 368.5,451.5C 368.5,461.5 368.5,471.5 368.5,481.5C 381.171,481.333 393.838,481.5 406.5,482C 412.658,484.797 415.992,489.63 416.5,496.5C 415.87,503.458 412.537,508.458 406.5,511.5C 305.833,511.5 205.167,511.5 104.5,511.5C 96.1603,506.811 93.3269,499.811 96,490.5C 97.5,486.333 100.333,483.5 104.5,482C 117.162,481.5 129.829,481.333 142.5,481.5C 142.5,471.5 142.5,461.5 142.5,451.5C 98.1654,451.667 53.8321,451.5 9.5,451C 4.98004,448.978 1.6467,445.811 -0.5,441.5C -0.5,312.5 -0.5,183.5 -0.5,54.5C 1.6467,50.189 4.98004,47.0223 9.5,45C 33.8311,44.5 58.1644,44.3334 82.5,44.5C 84.1776,21.1634 96.1776,6.16341 118.5,-0.5 Z M 127.5,29.5 C 132.833,29.5 138.167,29.5 143.5,29.5C 143.5,100.167 143.5,170.833 143.5,241.5C 132.635,243.517 122.801,247.85 114,254.5C 113.333,183.5 113.333,112.5 114,41.5C 116.196,34.7985 120.696,30.7985 127.5,29.5 Z M 174.5,29.5 C 248.833,29.5 323.167,29.5 397.5,29.5C 397.5,99.5 397.5,169.5 397.5,239.5C 323.167,239.5 248.833,239.5 174.5,239.5C 174.5,169.5 174.5,99.5 174.5,29.5 Z M 30.5,75.5 C 47.8333,75.5 65.1667,75.5 82.5,75.5C 82.3333,157.834 82.5,240.167 83,322.5C 87.9334,358.102 107.767,380.602 142.5,390C 189.473,391.149 236.473,391.649 283.5,391.5C 328.167,391.333 372.833,391.167 417.5,391C 421.612,389.221 424.778,386.388 427,382.5C 428.493,280.223 428.993,177.89 428.5,75.5C 445.833,75.5 463.167,75.5 480.5,75.5C 480.5,190.5 480.5,305.5 480.5,420.5C 330.5,420.5 180.5,420.5 30.5,420.5C 30.5,305.5 30.5,190.5 30.5,75.5 Z M 155.5,270.5 C 236.167,270.5 316.833,270.5 397.5,270.5C 397.5,280.5 397.5,290.5 397.5,300.5C 316.166,300.333 234.833,300.5 153.5,301C 146.452,303.398 142.786,308.398 142.5,316C 143.276,324.108 147.61,329.108 155.5,331C 236.166,331.5 316.833,331.667 397.5,331.5C 397.5,341.167 397.5,350.833 397.5,360.5C 315.499,360.667 233.499,360.5 151.5,360C 132.189,356.022 120.022,344.522 115,325.5C 111.931,294.972 125.431,276.638 155.5,270.5 Z M 173.5,451.5 C 228.167,451.5 282.833,451.5 337.5,451.5C 337.5,461.5 337.5,471.5 337.5,481.5C 282.833,481.5 228.167,481.5 173.5,481.5C 173.5,471.5 173.5,461.5 173.5,451.5 Z"/></g>
</svg>
