<?xml version="1.0" encoding="UTF-8"?>
<!DOCTYPE svg PUBLIC "-//W3C//DTD SVG 1.1//EN" "http://www.w3.org/Graphics/SVG/1.1/DTD/svg11.dtd">
<svg xmlns="http://www.w3.org/2000/svg" version="1.1" width="1000px" height="1000px" style="shape-rendering:geometricPrecision; text-rendering:geometricPrecision; image-rendering:optimizeQuality; fill-rule:evenodd; clip-rule:evenodd" xmlns:xlink="http://www.w3.org/1999/xlink">
<g><path style="opacity:0.983" fill="#00c7ff" d="M 9.5,-0.5 C 121.5,-0.5 233.5,-0.5 345.5,-0.5C 350.64,1.81949 353.806,5.81949 355,11.5C 355.333,75.8333 355.667,140.167 356,204.5C 367.5,216 379,227.5 390.5,239C 394.435,239.084 398.102,240.084 401.5,242C 425.014,265.681 448.68,289.181 472.5,312.5C 481.011,305.1 482.511,296.433 477,286.5C 458.362,266.862 439.362,247.528 420,228.5C 415.309,217.904 418.142,210.071 428.5,205C 432.594,204.233 436.594,204.566 440.5,206C 460.638,225.138 480.472,244.638 500,264.5C 505.793,272.408 509.626,281.075 511.5,290.5C 511.5,294.833 511.5,299.167 511.5,303.5C 509.596,315.936 503.93,326.436 494.5,335C 503.769,344.042 509.436,354.875 511.5,367.5C 511.5,371.5 511.5,375.5 511.5,379.5C 503.92,412.213 483.253,427.046 449.5,424C 441.401,422.283 434.068,418.95 427.5,414C 403.667,390.167 379.833,366.333 356,342.5C 355.667,394.833 355.333,447.167 355,499.5C 353.806,505.181 350.64,509.181 345.5,511.5C 233.5,511.5 121.5,511.5 9.5,511.5C 4.74828,509.083 1.41495,505.417 -0.5,500.5C -0.5,337.167 -0.5,173.833 -0.5,10.5C 1.41495,5.58321 4.74828,1.91654 9.5,-0.5 Z M 30.5,29.5 C 128.5,29.5 226.5,29.5 324.5,29.5C 324.667,77.5012 324.5,125.501 324,173.5C 292.489,143.648 255.989,121.814 214.5,108C 202.337,105.906 195.337,110.906 193.5,123C 206.718,166.289 228.551,204.456 259,237.5C 280.667,259.167 302.333,280.833 324,302.5C 324.5,362.166 324.667,421.832 324.5,481.5C 226.5,481.5 128.5,481.5 30.5,481.5C 30.5,330.833 30.5,180.167 30.5,29.5 Z M 120.5,115.5 C 124.593,125.537 128.593,135.704 132.5,146C 124.5,146.667 116.5,146.667 108.5,146C 112.368,135.767 116.368,125.6 120.5,115.5 Z M 238.5,151.5 C 259.351,162.089 278.684,174.922 296.5,190C 319.5,213 342.5,236 365.5,259C 358.667,265.833 351.833,272.667 345,279.5C 319.607,254.775 294.941,229.442 271,203.5C 257.875,187.58 247.042,170.246 238.5,151.5 Z M 391.5,276.5 C 419.799,304.298 447.965,332.298 476,360.5C 483.82,375.068 480.32,385.901 465.5,393C 458.493,394.562 452.159,393.229 446.5,389C 419,361.5 391.5,334 364,306.5C 363.333,305.833 363.333,305.167 364,304.5C 373.369,295.298 382.536,285.965 391.5,276.5 Z"/></g>
<g><path style="opacity:0.984" fill="#00c7ff" d="M 119.5,59.5 C 128.386,60.0217 134.553,64.3551 138,72.5C 151.804,109.578 165.804,146.578 180,183.5C 182.5,199.667 175.667,206.5 159.5,204C 157.246,202.623 155.08,201.123 153,199.5C 149.468,192.068 146.634,184.401 144.5,176.5C 128.5,176.5 112.5,176.5 96.5,176.5C 94.5035,183.655 92.0035,190.655 89,197.5C 82.4337,205.042 74.6004,206.542 65.5,202C 62.0332,198.566 60.0332,194.399 59.5,189.5C 73.7679,149.629 88.6013,109.962 104,70.5C 107.391,64.2673 112.558,60.6006 119.5,59.5 Z M 120.5,115.5 C 116.368,125.6 112.368,135.767 108.5,146C 116.5,146.667 124.5,146.667 132.5,146C 128.593,135.704 124.593,125.537 120.5,115.5 Z"/></g>
<g><path style="opacity:0.983" fill="#00c7ff" d="M 71.5,292.5 C 142.501,292.333 213.501,292.5 284.5,293C 295.281,298.621 297.781,306.788 292,317.5C 289.9,320.467 287.066,322.3 283.5,323C 212.833,323.667 142.167,323.667 71.5,323C 63.9953,320.827 60.3286,315.827 60.5,308C 60.5306,300.151 64.1973,294.985 71.5,292.5 Z"/></g>
<g><path style="opacity:0.984" fill="#00c7ff" d="M 71.5,352.5 C 142.501,352.333 213.501,352.5 284.5,353C 294.741,358.121 297.574,365.954 293,376.5C 290.635,379.869 287.468,382.036 283.5,383C 212.833,383.667 142.167,383.667 71.5,383C 63.9953,380.827 60.3286,375.827 60.5,368C 60.5306,360.151 64.1973,354.985 71.5,352.5 Z"/></g>
<g><path style="opacity:0.969" fill="#00c6ff" d="M 71.5,412.5 C 142.167,412.333 212.834,412.5 283.5,413C 294.602,417.546 297.769,425.38 293,436.5C 290.635,439.869 287.468,442.036 283.5,443C 212.833,443.667 142.167,443.667 71.5,443C 63.9953,440.827 60.3286,435.827 60.5,428C 60.5306,420.151 64.1973,414.985 71.5,412.5 Z"/></g>
</svg>
