<?xml version="1.0" encoding="UTF-8"?>
<!DOCTYPE svg PUBLIC "-//W3C//DTD SVG 1.1//EN" "http://www.w3.org/Graphics/SVG/1.1/DTD/svg11.dtd">
<svg xmlns="http://www.w3.org/2000/svg" version="1.1" width="2000px" height="2000px" style="shape-rendering:geometricPrecision; text-rendering:geometricPrecision; image-rendering:optimizeQuality; fill-rule:evenodd; clip-rule:evenodd" xmlns:xlink="http://www.w3.org/1999/xlink">
<g><path style="opacity:0.984" fill="#00c7ff" d="M 249.5,-0.5 C 253.5,-0.5 257.5,-0.5 261.5,-0.5C 312.45,14.492 363.45,29.6587 414.5,45C 421.709,52.4261 422.376,60.4261 416.5,69C 413.205,71.434 409.538,73.1007 405.5,74C 393.858,77.3268 382.191,80.4934 370.5,83.5C 370.5,102.833 370.5,122.167 370.5,141.5C 396.625,141.13 413.125,153.463 420,178.5C 421.402,213.768 404.402,232.101 369,233.5C 364.669,258.669 353.169,279.836 334.5,297C 377.457,293.237 411.29,308.737 436,343.5C 441.084,352.339 445.084,361.672 448,371.5C 454.883,411.462 461.549,451.462 468,491.5C 469.888,500.707 466.721,507.374 458.5,511.5C 323.167,511.5 187.833,511.5 52.5,511.5C 44.2786,507.374 41.112,500.707 43,491.5C 49.4507,451.462 56.1174,411.462 63,371.5C 75.9573,329.544 104.124,305.044 147.5,298C 157.167,297.667 166.833,297.333 176.5,297C 157.831,279.836 146.331,258.669 142,233.5C 106.598,232.101 89.598,213.768 91,178.5C 97.8754,153.463 114.375,141.13 140.5,141.5C 140.5,122.167 140.5,102.833 140.5,83.5C 124.711,79.9584 109.378,75.1251 94.5,69C 88.6244,60.4261 89.2911,52.4261 96.5,45C 147.55,29.6587 198.55,14.492 249.5,-0.5 Z M 254.5,30.5 C 285.917,39.3545 317.25,48.5212 348.5,58C 317.606,66.6315 286.772,75.4649 256,84.5C 224.836,75.6676 193.669,66.8342 162.5,58C 193.273,48.8117 223.94,39.6451 254.5,30.5 Z M 171.5,93.5 C 199.491,101.163 227.491,108.83 255.5,116.5C 283.51,108.831 311.51,101.164 339.5,93.5C 339.821,105.414 339.488,117.247 338.5,129C 283.167,151 227.833,151 172.5,129C 171.512,117.247 171.179,105.414 171.5,93.5 Z M 171.5,162.5 C 212.002,175.769 253.336,179.269 295.5,173C 310.412,170.438 325.079,166.938 339.5,162.5C 339.667,183.169 339.5,203.836 339,224.5C 329.394,269.602 301.561,293.935 255.5,297.5C 209.439,293.935 181.606,269.602 172,224.5C 171.5,203.836 171.333,183.169 171.5,162.5 Z M 132.5,172.5 C 135.167,172.5 137.833,172.5 140.5,172.5C 140.5,182.167 140.5,191.833 140.5,201.5C 124.243,201.422 118.743,193.755 124,178.5C 126.671,176.098 129.505,174.098 132.5,172.5 Z M 370.5,172.5 C 384.003,171.835 390.169,178.168 389,191.5C 385.365,199.403 379.198,202.736 370.5,201.5C 370.5,191.833 370.5,182.167 370.5,172.5 Z M 150.5,328.5 C 161.505,328.333 172.505,328.5 183.5,329C 202.123,355.746 220.623,382.58 239,409.5C 240.48,433.41 240.98,457.41 240.5,481.5C 185.833,481.5 131.167,481.5 76.5,481.5C 81.4483,449.143 86.615,416.81 92,384.5C 99.6604,353.337 119.16,334.671 150.5,328.5 Z M 221.5,329.5 C 243.996,328.337 266.663,328.17 289.5,329C 278.277,345.292 266.944,361.458 255.5,377.5C 244.157,361.471 232.824,345.471 221.5,329.5 Z M 327.5,328.5 C 338.505,328.333 349.505,328.5 360.5,329C 392.016,334.85 411.516,353.35 419,384.5C 424.385,416.81 429.552,449.143 434.5,481.5C 379.833,481.5 325.167,481.5 270.5,481.5C 270.333,458.164 270.5,434.831 271,411.5C 289.843,383.805 308.677,356.138 327.5,328.5 Z"/></g>
<g><path style="opacity:0.971" fill="#00c7ff" d="M 224.5,225.5 C 227.91,225.457 231.243,225.957 234.5,227C 248.5,239.667 262.5,239.667 276.5,227C 286.484,223.773 293.651,226.94 298,236.5C 299.604,244.022 297.437,250.189 291.5,255C 269.508,270.481 246.841,271.481 223.5,258C 210.619,249.391 209.286,239.391 219.5,228C 221.315,227.243 222.981,226.41 224.5,225.5 Z"/></g>
</svg>
