<?xml version="1.0" encoding="UTF-8"?>
<!DOCTYPE svg PUBLIC "-//W3C//DTD SVG 1.1//EN" "http://www.w3.org/Graphics/SVG/1.1/DTD/svg11.dtd">
<svg xmlns="http://www.w3.org/2000/svg" version="1.1" width="512px" height="512px" style="shape-rendering:geometricPrecision; text-rendering:geometricPrecision; image-rendering:optimizeQuality; fill-rule:evenodd; clip-rule:evenodd" xmlns:xlink="http://www.w3.org/1999/xlink">
<g><path style="opacity:0.982" fill="#00c6ff" d="M 511.5,384.5 C 511.5,396.5 511.5,408.5 511.5,420.5C 505.213,446.956 488.879,463.789 462.5,471C 393.526,472.155 324.526,472.655 255.5,472.5C 186.474,472.655 117.474,472.155 48.5,471C 22.0936,463.763 5.76022,446.929 -0.5,420.5C -0.5,408.5 -0.5,396.5 -0.5,384.5C 1.25648,380.907 3.92315,378.074 7.5,376C 13.4067,374.639 19.4067,374.139 25.5,374.5C 25.3333,297.833 25.5,221.166 26,144.5C 30.9522,121.547 44.7856,107.047 67.5,101C 89.4636,99.7337 111.464,99.067 133.5,99C 164.573,59.9641 205.24,39.7975 255.5,38.5C 305.756,39.7951 346.422,59.9617 377.5,99C 399.536,99.067 421.536,99.7337 443.5,101C 466.214,107.047 480.048,121.547 485,144.5C 485.5,221.166 485.667,297.833 485.5,374.5C 491.593,374.139 497.593,374.639 503.5,376C 507.077,378.074 509.744,380.907 511.5,384.5 Z M 254.5,69.5 C 259.975,71.1363 264.142,74.4696 267,79.5C 279.277,101.928 286.61,125.928 289,151.5C 290.053,159.802 290.553,168.135 290.5,176.5C 267.167,176.5 243.833,176.5 220.5,176.5C 220.47,143.476 227.637,112.143 242,82.5C 245.025,76.9769 249.191,72.6436 254.5,69.5 Z M 206.5,79.5 C 207.239,79.369 207.906,79.5357 208.5,80C 196.259,110.599 189.759,142.433 189,175.5C 170.91,176.492 152.743,176.826 134.5,176.5C 141.744,131.607 165.744,99.2735 206.5,79.5 Z M 302.5,80.5 C 302.56,79.9569 302.893,79.6236 303.5,79.5C 344.928,98.9326 369.261,131.266 376.5,176.5C 358.257,176.826 340.09,176.492 322,175.5C 321.105,149.667 317.105,124.334 310,99.5C 308,92.8538 305.5,86.5205 302.5,80.5 Z M 76.5,130.5 C 89.1842,130.168 101.851,130.501 114.5,131.5C 92.1611,189.97 100.328,243.637 139,292.5C 186.633,342.284 243.467,356.784 309.5,336C 379.095,305.35 411.928,251.85 408,175.5C 406.356,160.257 402.523,145.59 396.5,131.5C 409.154,130.334 421.82,130.167 434.5,131C 444.156,133.323 450.656,139.157 454,148.5C 454.5,223.833 454.667,299.166 454.5,374.5C 321.833,374.5 189.167,374.5 56.5,374.5C 56.3333,299.166 56.5,223.833 57,148.5C 60.5194,139.143 67.0194,133.143 76.5,130.5 Z M 134.5,207.5 C 152.743,207.174 170.91,207.508 189,208.5C 189.759,241.567 196.259,273.401 208.5,304C 172.949,289.436 149.449,263.602 138,226.5C 136.124,220.286 134.957,213.952 134.5,207.5 Z M 220.5,207.5 C 243.833,207.5 267.167,207.5 290.5,207.5C 290.53,240.524 283.363,271.857 269,301.5C 265.972,307.361 261.472,311.694 255.5,314.5C 249.528,311.694 245.028,307.361 242,301.5C 227.637,271.857 220.47,240.524 220.5,207.5 Z M 322.5,207.5 C 340.5,207.5 358.5,207.5 376.5,207.5C 370.307,248.509 349.307,279.342 313.5,300C 310.047,302.24 306.381,303.573 302.5,304C 308.618,290.036 313.118,275.536 316,260.5C 319.225,242.908 321.391,225.242 322.5,207.5 Z M 29.5,405.5 C 180.167,405.5 330.833,405.5 481.5,405.5C 481.331,424.712 471.998,436.545 453.5,441C 321.5,441.667 189.5,441.667 57.5,441C 39.002,436.545 29.6686,424.712 29.5,405.5 Z"/></g>
</svg>
