<?xml version="1.0" encoding="UTF-8"?>
<!DOCTYPE svg PUBLIC "-//W3C//DTD SVG 1.1//EN" "http://www.w3.org/Graphics/SVG/1.1/DTD/svg11.dtd">
<svg xmlns="http://www.w3.org/2000/svg" version="1.1" width="512px" height="512px" style="shape-rendering:geometricPrecision; text-rendering:geometricPrecision; image-rendering:optimizeQuality; fill-rule:evenodd; clip-rule:evenodd" xmlns:xlink="http://www.w3.org/1999/xlink">
<g><path style="opacity:0.982" fill="#00c6ff" d="M 511.5,136.5 C 511.5,140.167 511.5,143.833 511.5,147.5C 510.121,150.386 508.121,152.886 505.5,155C 495.653,159.004 485.653,162.504 475.5,165.5C 475.5,214.167 475.5,262.833 475.5,311.5C 494.83,319.1 505.163,333.433 506.5,354.5C 505.037,375.112 494.871,389.446 476,397.5C 475.667,418.167 475.333,438.833 475,459.5C 469.63,469.4 461.797,471.9 451.5,467C 448.894,465.062 447.061,462.562 446,459.5C 444.558,438.545 444.058,417.545 444.5,396.5C 425.575,388.871 415.575,374.705 414.5,354C 415.611,333.93 425.278,319.763 443.5,311.5C 444.5,266.838 444.833,222.172 444.5,177.5C 431.976,181.231 419.642,185.564 407.5,190.5C 406.667,224.828 406.167,259.162 406,293.5C 403.43,301.071 398.93,307.237 392.5,312C 370.005,325.611 345.672,334.278 319.5,338C 267.404,346.873 215.737,344.873 164.5,332C 148.119,327.654 132.785,320.987 118.5,312C 112.07,307.237 107.57,301.071 105,293.5C 104.667,259.167 104.333,224.833 104,190.5C 71.9259,178.808 39.7593,167.308 7.5,156C 3.92315,153.926 1.25648,151.093 -0.5,147.5C -0.5,143.833 -0.5,140.167 -0.5,136.5C 2.77497,130.01 8.1083,126.177 15.5,125C 95.2798,96.4626 175.28,68.6293 255.5,41.5C 339.115,69.8045 422.448,98.9712 505.5,129C 508.121,131.114 510.121,133.614 511.5,136.5 Z M 254.5,73.5 C 319.59,96.0302 384.59,118.863 449.5,142C 385.909,164.864 322.243,187.53 258.5,210C 253.298,210.273 248.298,209.273 243.5,207C 182.833,185.333 122.167,163.667 61.5,142C 125.969,119.235 190.303,96.4013 254.5,73.5 Z M 135.5,201.5 C 175.276,216.051 215.276,230.051 255.5,243.5C 295.597,230.19 335.431,216.19 375,201.5C 375.667,229.5 375.667,257.5 375,285.5C 362.563,293.651 349.063,299.484 334.5,303C 274.915,317.318 215.915,315.318 157.5,297C 149.809,294.072 142.642,290.239 136,285.5C 135.5,257.502 135.333,229.502 135.5,201.5 Z M 457.5,339.5 C 467.516,339.35 473.516,344.183 475.5,354C 471.792,368.126 463.459,371.793 450.5,365C 442.932,353.772 445.265,345.272 457.5,339.5 Z"/></g>
</svg>
