<?xml version="1.0" encoding="UTF-8"?>
<!DOCTYPE svg PUBLIC "-//W3C//DTD SVG 1.1//EN" "http://www.w3.org/Graphics/SVG/1.1/DTD/svg11.dtd">
<svg xmlns="http://www.w3.org/2000/svg" version="1.1" width="512px" height="512px" style="shape-rendering:geometricPrecision; text-rendering:geometricPrecision; image-rendering:optimizeQuality; fill-rule:evenodd; clip-rule:evenodd" xmlns:xlink="http://www.w3.org/1999/xlink">
<g><path style="opacity:0.988" fill="#00c7ff" d="M 249.5,-0.5 C 280.833,-0.5 312.167,-0.5 343.5,-0.5C 347.479,1.31481 350.312,4.31481 352,8.5C 352.667,32.5 352.667,56.5 352,80.5C 350.5,84.6667 347.667,87.5 343.5,89C 319.169,89.5 294.836,89.6666 270.5,89.5C 270.334,95.5092 270.501,101.509 271,107.5C 300.333,137.5 329.667,167.5 359,197.5C 360.432,205.054 360.932,212.721 360.5,220.5C 400.835,220.333 441.168,220.5 481.5,221C 484.902,222.4 487.736,224.567 490,227.5C 497.099,248.302 504.266,268.969 511.5,289.5C 511.5,293.5 511.5,297.5 511.5,301.5C 509.685,305.479 506.685,308.312 502.5,310C 497.599,311.325 492.599,311.825 487.5,311.5C 487.667,375.168 487.5,438.834 487,502.5C 485.312,506.685 482.479,509.685 478.5,511.5C 329.833,511.5 181.167,511.5 32.5,511.5C 28.5212,509.685 25.6878,506.685 24,502.5C 23.5,438.834 23.3333,375.168 23.5,311.5C 16.7794,312.249 10.446,311.082 4.5,308C 2.44965,306.035 0.782988,303.868 -0.5,301.5C -0.5,297.5 -0.5,293.5 -0.5,289.5C 6.734,268.969 13.9007,248.302 21,227.5C 23.2643,224.567 26.0976,222.4 29.5,221C 69.832,220.5 110.165,220.333 150.5,220.5C 150.104,212.747 150.604,205.08 152,197.5C 181.333,167.5 210.667,137.5 240,107.5C 240.333,74.5 240.667,41.5 241,8.5C 242.688,4.31481 245.521,1.31481 249.5,-0.5 Z M 270.5,29.5 C 287.5,29.5 304.5,29.5 321.5,29.5C 321.5,39.5 321.5,49.5 321.5,59.5C 304.5,59.5 287.5,59.5 270.5,59.5C 270.5,49.5 270.5,39.5 270.5,29.5 Z M 254.5,137.5 C 272.762,154.094 290.428,171.427 307.5,189.5C 272.833,190.833 238.167,190.833 203.5,189.5C 220.521,172.146 237.521,154.813 254.5,137.5 Z M 180.5,221.5 C 230.5,221.5 280.5,221.5 330.5,221.5C 330.5,308.167 330.5,394.833 330.5,481.5C 320.5,481.5 310.5,481.5 300.5,481.5C 300.667,447.832 300.5,414.165 300,380.5C 297.993,375.162 294.159,371.996 288.5,371C 266.5,370.333 244.5,370.333 222.5,371C 216.841,371.996 213.007,375.162 211,380.5C 210.5,414.165 210.333,447.832 210.5,481.5C 200.5,481.5 190.5,481.5 180.5,481.5C 180.5,394.833 180.5,308.167 180.5,221.5 Z M 45.5,251.5 C 80.5,251.5 115.5,251.5 150.5,251.5C 150.5,261.167 150.5,270.833 150.5,280.5C 112.5,280.5 74.5,280.5 36.5,280.5C 39.2977,270.773 42.2977,261.107 45.5,251.5 Z M 360.5,251.5 C 395.506,251.167 430.506,251.5 465.5,252.5C 468.908,261.723 471.908,271.056 474.5,280.5C 436.5,280.5 398.5,280.5 360.5,280.5C 360.5,270.833 360.5,261.167 360.5,251.5 Z M 252.5,281.5 C 266.781,282.393 271.948,289.727 268,303.5C 258.523,313.315 249.856,312.649 242,301.5C 240.02,291.788 243.52,285.122 252.5,281.5 Z M 54.5,311.5 C 86.5,311.5 118.5,311.5 150.5,311.5C 150.5,368.167 150.5,424.833 150.5,481.5C 118.5,481.5 86.5,481.5 54.5,481.5C 54.5,424.833 54.5,368.167 54.5,311.5 Z M 360.5,311.5 C 392.5,311.5 424.5,311.5 456.5,311.5C 456.5,368.167 456.5,424.833 456.5,481.5C 424.5,481.5 392.5,481.5 360.5,481.5C 360.5,424.833 360.5,368.167 360.5,311.5 Z M 240.5,401.5 C 250.5,401.5 260.5,401.5 270.5,401.5C 270.5,428.167 270.5,454.833 270.5,481.5C 260.5,481.5 250.5,481.5 240.5,481.5C 240.5,454.833 240.5,428.167 240.5,401.5 Z"/></g>
<g><path style="opacity:0.98" fill="#00c7ff" d="M 249.5,250.5 C 275.765,249.374 292.598,261.374 300,286.5C 303.444,315.81 290.944,333.977 262.5,341C 235.714,342.874 218.547,331.04 211,305.5C 208.095,275.934 220.928,257.601 249.5,250.5 Z M 252.5,281.5 C 243.52,285.122 240.02,291.788 242,301.5C 249.856,312.649 258.523,313.315 268,303.5C 271.948,289.727 266.781,282.393 252.5,281.5 Z"/></g>
<g><path style="opacity:0.957" fill="#00c7ff" d="M 98.5,336.5 C 113.616,337.115 119.449,344.782 116,359.5C 110.649,367.281 103.482,369.448 94.5,366C 86.2424,360.179 84.4091,352.679 89,343.5C 91.529,340.115 94.6956,337.782 98.5,336.5 Z"/></g>
<g><path style="opacity:0.952" fill="#00c7ff" d="M 405.5,336.5 C 420.631,337.128 426.465,344.795 423,359.5C 417.649,367.281 410.482,369.448 401.5,366C 393.25,360.151 391.417,352.651 396,343.5C 398.505,340.147 401.671,337.814 405.5,336.5 Z"/></g>
<g><path style="opacity:0.957" fill="#00c7ff" d="M 98.5,396.5 C 113.616,397.115 119.449,404.782 116,419.5C 110.649,427.281 103.482,429.448 94.5,426C 86.2424,420.179 84.4091,412.679 89,403.5C 91.529,400.115 94.6956,397.782 98.5,396.5 Z"/></g>
<g><path style="opacity:0.952" fill="#00c7ff" d="M 405.5,396.5 C 420.631,397.128 426.465,404.795 423,419.5C 417.649,427.281 410.482,429.448 401.5,426C 393.25,420.151 391.417,412.651 396,403.5C 398.505,400.147 401.671,397.814 405.5,396.5 Z"/></g>
</svg>
