<?xml version="1.0" encoding="UTF-8"?>
<!DOCTYPE svg PUBLIC "-//W3C//DTD SVG 1.1//EN" "http://www.w3.org/Graphics/SVG/1.1/DTD/svg11.dtd">
<svg xmlns="http://www.w3.org/2000/svg" version="1.1" width="512px" height="512px" style="shape-rendering:geometricPrecision; text-rendering:geometricPrecision; image-rendering:optimizeQuality; fill-rule:evenodd; clip-rule:evenodd" xmlns:xlink="http://www.w3.org/1999/xlink">
<g><path style="opacity:0.981" fill="#00c7ff" d="M 250.5,-0.5 C 253.833,-0.5 257.167,-0.5 260.5,-0.5C 342.095,27.1992 423.762,55.0325 505.5,83C 508.153,85.1337 510.153,87.6337 511.5,90.5C 511.5,94.1667 511.5,97.8333 511.5,101.5C 509.285,106.207 505.618,109.373 500.5,111C 473.831,120.111 447.331,129.611 421,139.5C 420.667,168.5 420.333,197.5 420,226.5C 418.93,229.242 417.43,231.742 415.5,234C 328.645,275.758 238.978,282.758 146.5,255C 128.17,249.247 110.67,241.747 94,232.5C 92.5611,230.725 91.5611,228.725 91,226.5C 90.5,197.169 90.3334,167.835 90.5,138.5C 80.3227,135.747 70.3227,132.414 60.5,128.5C 59.6668,163.162 59.1668,197.829 59,232.5C 53.6048,242.409 45.7715,244.909 35.5,240C 33.2911,238.127 31.4578,235.96 30,233.5C 28.8613,227.564 28.1946,221.564 28,215.5C 21.2538,223.363 13.4205,224.53 4.5,219C 2.54763,216.574 0.880961,214.074 -0.5,211.5C -0.5,208.5 -0.5,205.5 -0.5,202.5C 0.374833,200.432 1.5415,198.432 3,196.5C 10.9692,187.53 19.3025,178.863 28,170.5C 28.6667,152.833 28.6667,135.167 28,117.5C 20.1035,114.533 12.2702,111.367 4.5,108C 2.44965,106.035 0.782988,103.868 -0.5,101.5C -0.5,97.8333 -0.5,94.1667 -0.5,90.5C 1.62186,86.2149 4.9552,83.0482 9.5,81C 90.0423,54.0975 170.376,26.9309 250.5,-0.5 Z M 252.5,31.5 C 254.527,31.3379 256.527,31.5045 258.5,32C 321.833,53.3333 385.167,74.6667 448.5,96C 384.167,118.833 319.833,141.667 255.5,164.5C 191.205,141.568 126.871,118.735 62.5,96C 126.042,74.7643 189.376,53.2643 252.5,31.5 Z M 121.5,150.5 C 165.973,166.403 210.639,181.737 255.5,196.5C 300.09,181.97 344.424,166.636 388.5,150.5C 389.833,171.167 389.833,191.833 388.5,212.5C 299.833,249.833 211.167,249.833 122.5,212.5C 121.5,191.844 121.167,171.177 121.5,150.5 Z"/></g>
<g><path style="opacity:0.98" fill="#00c7ff" d="M 511.5,367.5 C 511.5,373.833 511.5,380.167 511.5,386.5C 507.63,401.546 498.964,413.046 485.5,421C 421.5,448.667 357.5,476.333 293.5,504C 284.895,507.147 276.228,509.647 267.5,511.5C 258.833,511.5 250.167,511.5 241.5,511.5C 235.581,510.21 229.581,508.71 223.5,507C 171.243,488.136 118.909,469.47 66.5,451C 64.8333,450.333 63.1667,450.333 61.5,451C 46.2273,457.757 30.7273,463.924 15,469.5C 7.29735,468.616 2.13068,464.616 -0.5,457.5C -0.5,417.833 -0.5,378.167 -0.5,338.5C 1.62437,332.878 5.62437,329.045 11.5,327C 33.9464,318.277 56.2797,309.277 78.5,300C 110.528,289.228 142.194,290.228 173.5,303C 216.167,318.667 258.833,334.333 301.5,350C 315.131,357.305 323.964,368.472 328,383.5C 368.978,365.595 410.145,348.095 451.5,331C 474.633,326.825 492.8,334.325 506,353.5C 508.158,358.159 509.991,362.825 511.5,367.5 Z M 111.5,323.5 C 123.69,322.818 135.69,323.985 147.5,327C 196.191,344.185 244.524,362.185 292.5,381C 300.411,394.6 297.078,404.6 282.5,411C 276.638,411.952 270.972,411.285 265.5,409C 233.577,397.137 201.577,385.47 169.5,374C 154.993,373.177 148.827,380.01 151,394.5C 152.061,397.562 153.894,400.062 156.5,402C 193.293,415.931 230.293,429.264 267.5,442C 289.636,444.592 307.636,437.259 321.5,420C 366.582,400.861 411.582,381.528 456.5,362C 473.274,358.783 481.107,365.617 480,382.5C 478.223,386.904 475.39,390.404 471.5,393C 406.582,421.195 341.582,449.195 276.5,477C 262.934,481.228 249.267,481.562 235.5,478C 178.471,457.435 121.304,437.268 64,417.5C 52.5592,420.721 41.5592,425.054 31,430.5C 30.5,404.502 30.3334,378.502 30.5,352.5C 49.6923,345.574 68.6923,338.074 87.5,330C 95.4594,327.179 103.459,325.013 111.5,323.5 Z"/></g>
</svg>
